<svg width="20" height="20" viewBox="0 0 20 20" fill="none" xmlns="http://www.w3.org/2000/svg">
<circle cx="10" cy="10" r="9.5" fill="white" stroke="#076EB8"/>
<g clip-path="url(#clip0_318_9626)">
<path d="M12.0103 4.56319V6.25069H10.677C9.02075 6.25069 7.677 7.76241 7.677 9.62569C7.677 11.8148 9.402 12.7851 9.77284 12.9679C9.81867 12.9913 9.86867 13.0007 9.92075 13.0007H9.97284C10.177 13.0007 10.3437 12.8132 10.3437 12.5835C10.3437 12.389 10.2208 12.2202 10.077 12.1077C9.89159 11.9624 9.677 11.6812 9.677 11.1585C9.677 10.1038 10.4374 9.24835 11.3749 9.24835H12.0103V10.9359C12.0103 11.1632 12.1312 11.3694 12.3187 11.4562C12.5062 11.5429 12.7208 11.496 12.8645 11.3343L15.6978 8.14679C15.8937 7.92648 15.8937 7.57023 15.6978 7.35226L12.8645 4.16476C12.7208 4.00304 12.5062 3.95616 12.3187 4.04288C12.1312 4.1296 12.0103 4.33585 12.0103 4.56319ZM6.34367 6.25069C5.42284 6.25069 4.677 7.08976 4.677 8.12569V14.1257C4.677 15.1616 5.42284 16.0007 6.34367 16.0007H11.677C12.5978 16.0007 13.3437 15.1616 13.3437 14.1257V13.3757C13.3437 12.9609 13.0458 12.6257 12.677 12.6257C12.3083 12.6257 12.0103 12.9609 12.0103 13.3757V14.1257C12.0103 14.3319 11.8603 14.5007 11.677 14.5007H6.34367C6.16034 14.5007 6.01034 14.3319 6.01034 14.1257V8.12569C6.01034 7.91944 6.16034 7.75069 6.34367 7.75069H6.677C7.04575 7.75069 7.34367 7.41554 7.34367 7.00069C7.34367 6.58585 7.04575 6.25069 6.677 6.25069H6.34367Z" fill="#0469B9"/>
</g>
<defs>
<clipPath id="clip0_318_9626">
<rect width="12" height="12" fill="white" transform="translate(4 4)"/>
</clipPath>
</defs>
</svg>
