<svg width="500" height="500" viewBox="0 0 500 500" fill="none" xmlns="http://www.w3.org/2000/svg">
<rect width="500" height="500" fill="#A4D3FE" fill-opacity="0.4"/>
<rect x="0.25" y="0.25" width="499.5" height="499.5" stroke="#D8D8D8" stroke-opacity="0.2" stroke-width="0.5"/>
<path d="M250 500V350" stroke="#7C8DB5" stroke-opacity="0.7" stroke-width="8"/>
<path d="M0 250H150" stroke="#7C8DB5" stroke-opacity="0.7" stroke-width="8"/>
<path d="M143.229 283.959L143.229 216.042C143.229 164.896 165.104 143.021 216.25 143.021H217.604C263.854 143.021 286.146 161.251 290 202.084C290.312 206.251 287.187 210.209 282.917 210.626C278.646 211.042 274.792 207.917 274.375 203.542C271.354 170.834 255.937 158.646 217.5 158.646H216.146C173.75 158.646 158.75 173.646 158.75 216.042L158.75 283.959C158.75 326.355 173.75 341.355 216.146 341.355H217.5C256.146 341.355 271.562 328.959 274.375 295.626C274.792 291.355 278.542 288.126 282.812 288.542C287.083 288.959 290.312 292.605 289.896 296.98C286.354 338.438 263.958 356.98 217.396 356.98H216.042C165.104 356.98 143.229 335.105 143.229 283.959Z" fill="#076EB8"/>
<path d="M210.937 250C210.937 245.729 214.479 242.187 218.749 242.187L337.291 242.188C341.562 242.188 345.104 245.729 345.104 250C345.104 254.271 341.562 257.812 337.291 257.812H218.749C214.479 257.812 210.937 254.271 210.937 250Z" fill="#076EB8"/>
<path d="M306.249 284.896C306.249 282.917 306.979 280.938 308.541 279.376L337.916 250.001L308.541 220.626C305.52 217.605 305.52 212.605 308.541 209.584C311.562 206.563 316.562 206.563 319.583 209.584L354.479 244.48C357.499 247.501 357.499 252.501 354.479 255.521L319.583 290.417C316.562 293.438 311.562 293.438 308.541 290.417C306.979 288.959 306.249 286.876 306.249 284.896Z" fill="#076EB8"/>
</svg>
