<svg width="25" height="25" viewBox="0 0 25 25" fill="none" xmlns="http://www.w3.org/2000/svg">
<g clip-path="url(#clip0_104_13961)">
<rect width="25" height="25" rx="10" fill="white"/>
<path d="M17.6339 11.6069H13.3928V7.36579C13.3928 7.24302 13.2924 7.14258 13.1696 7.14258H11.8303C11.7076 7.14258 11.6071 7.24302 11.6071 7.36579V11.6069H7.36604C7.24327 11.6069 7.14282 11.7073 7.14282 11.8301V13.1694C7.14282 13.2921 7.24327 13.3926 7.36604 13.3926H11.6071V17.6336C11.6071 17.7564 11.7076 17.8569 11.8303 17.8569H13.1696C13.2924 17.8569 13.3928 17.7564 13.3928 17.6336V13.3926H17.6339C17.7567 13.3926 17.8571 13.2921 17.8571 13.1694V11.8301C17.8571 11.7073 17.7567 11.6069 17.6339 11.6069Z" fill="#0469B9"/>
<path d="M12.5 0C5.5971 0 0 5.5971 0 12.5C0 19.4029 5.5971 25 12.5 25C19.4029 25 25 19.4029 25 12.5C25 5.5971 19.4029 0 12.5 0ZM12.5 22.8795C6.76897 22.8795 2.12054 18.231 2.12054 12.5C2.12054 6.76897 6.76897 2.12054 12.5 2.12054C18.231 2.12054 22.8795 6.76897 22.8795 12.5C22.8795 18.231 18.231 22.8795 12.5 22.8795Z" fill="#0469B9"/>
</g>
<defs>
<clipPath id="clip0_104_13961">
<rect width="25" height="25" rx="10" fill="white"/>
</clipPath>
</defs>
</svg>
