<svg width="308" height="308" viewBox="0 0 308 308" fill="none" xmlns="http://www.w3.org/2000/svg">
<g filter="url(#filter0_d_873_17979)">
<path d="M180.982 0.0195318L6.0947 25.7977C5.65372 25.8627 5.51177 26.4286 5.86988 26.6941L94.0799 92.0742C94.1946 92.1592 94.3401 92.1911 94.4799 92.1619L301.9 48.8256C302.385 48.7242 302.443 48.054 301.982 47.8713L181.239 0.0493199C181.157 0.0170095 181.069 0.00673665 180.982 0.0195318Z" fill="#38A0F0"/>
<path d="M90.8809 96.3884L4.80176 30.9175C4.47204 30.6667 3.99785 30.9027 3.99907 31.3169L4.45152 185.114C4.45185 185.224 4.4881 185.33 4.55472 185.417L90.1814 297.1C90.4721 297.48 91.0782 297.274 91.0782 296.796V96.7864C91.0782 96.6302 91.0052 96.483 90.8809 96.3884Z" fill="#1D8ADF"/>
<path d="M303.325 54.2429L96.8783 99.0475C96.6484 99.0974 96.4844 99.3008 96.4844 99.5361V299.29C96.4844 299.635 96.8268 299.877 97.1524 299.76L303.599 226.091C303.798 226.02 303.931 225.832 303.931 225.62V54.7315C303.931 54.4126 303.637 54.1752 303.325 54.2429Z" fill="#0F6EB8" stroke="#0F6EB8" stroke-width="0.1"/>
</g>
<defs>
<filter id="filter0_d_873_17979" x="0" y="0.0136719" width="307.98" height="307.826" filterUnits="userSpaceOnUse" color-interpolation-filters="sRGB">
<feFlood flood-opacity="0" result="BackgroundImageFix"/>
<feColorMatrix in="SourceAlpha" type="matrix" values="0 0 0 0 0 0 0 0 0 0 0 0 0 0 0 0 0 0 127 0" result="hardAlpha"/>
<feOffset dy="4"/>
<feGaussianBlur stdDeviation="2"/>
<feComposite in2="hardAlpha" operator="out"/>
<feColorMatrix type="matrix" values="0 0 0 0 0 0 0 0 0 0 0 0 0 0 0 0 0 0 0.1 0"/>
<feBlend mode="normal" in2="BackgroundImageFix" result="effect1_dropShadow_873_17979"/>
<feBlend mode="normal" in="SourceGraphic" in2="effect1_dropShadow_873_17979" result="shape"/>
</filter>
</defs>
</svg>
