<svg width="20" height="20" viewBox="0 0 20 20" fill="none" xmlns="http://www.w3.org/2000/svg">
<circle cx="10" cy="10" r="9.5" fill="white" stroke="#076EB8"/>
<g clip-path="url(#clip0_289_35817)">
<path d="M10.6054 4.21973C10.2705 3.92676 9.72679 3.92676 9.39196 4.21973L5.96339 7.21973C5.62857 7.5127 5.62857 7.98848 5.96339 8.28145C6.29821 8.57441 6.84196 8.57441 7.17679 8.28145L9.14286 6.56113V11.4994C9.14286 11.9143 9.52589 12.2494 10 12.2494C10.4741 12.2494 10.8571 11.9143 10.8571 11.4994V6.56113L12.8232 8.28145C13.158 8.57441 13.7018 8.57441 14.0366 8.28145C14.3714 7.98848 14.3714 7.5127 14.0366 7.21973L10.608 4.21973H10.6054ZM5.71429 12.2494C5.71429 11.8346 5.33125 11.4994 4.85714 11.4994C4.38304 11.4994 4 11.8346 4 12.2494V13.7494C4 14.9916 5.15179 15.9994 6.57143 15.9994H13.4286C14.8482 15.9994 16 14.9916 16 13.7494V12.2494C16 11.8346 15.617 11.4994 15.1429 11.4994C14.6687 11.4994 14.2857 11.8346 14.2857 12.2494V13.7494C14.2857 14.1643 13.9027 14.4994 13.4286 14.4994H6.57143C6.09732 14.4994 5.71429 14.1643 5.71429 13.7494V12.2494Z" fill="#0469B9"/>
</g>
<defs>
<clipPath id="clip0_289_35817">
<rect width="12" height="12" fill="white" transform="translate(4 4)"/>
</clipPath>
</defs>
</svg>
