<svg width="10" height="10" viewBox="0 0 10 10" fill="none" xmlns="http://www.w3.org/2000/svg">
<path d="M9.42738 5.78571H0.107289C0.0483606 5.78571 0.00014635 5.83393 0.00014635 5.89286V6.69643C0.00014635 6.75536 0.0483606 6.80357 0.107289 6.80357H8.21265L6.28006 9.25446C6.22515 9.32411 6.2747 9.42857 6.36443 9.42857H7.33541C7.40104 9.42857 7.46265 9.39911 7.50416 9.34688L9.76488 6.47946C9.98586 6.19821 9.78631 5.78571 9.42738 5.78571ZM9.75015 2.625H1.64479L3.57738 0.174107C3.63229 0.104464 3.58274 0 3.493 0H2.52202C2.4564 0 2.39479 0.0294644 2.35327 0.0816965L0.092557 2.94911C-0.128425 3.23036 0.0711285 3.64286 0.428718 3.64286H9.75015C9.80908 3.64286 9.85729 3.59464 9.85729 3.53571V2.73214C9.85729 2.67321 9.80908 2.625 9.75015 2.625Z" fill="#484848"/>
</svg>
