<svg width="20" height="20" viewBox="0 0 20 20" fill="none" xmlns="http://www.w3.org/2000/svg">
<circle cx="10" cy="10" r="9.5" fill="white" stroke="#076EB8"/>
<g clip-path="url(#clip0_289_35752)">
<path d="M14.883 6.35021C14.8763 6.33816 14.8669 6.3261 14.8562 6.31673C14.7892 6.24977 14.6808 6.24977 14.6138 6.31673L12.3062 8.62432L11.3968 7.71494L13.7058 5.40602C13.7165 5.3953 13.7245 5.38459 13.7325 5.37253C13.7808 5.29084 13.754 5.18637 13.6723 5.13816C12.3571 4.36137 10.6348 4.5395 9.50308 5.66985C8.60576 6.56718 8.30844 7.8395 8.61245 8.98325L4.68835 12.9074C4.64817 12.9475 4.65085 13.0132 4.69236 13.0547L6.96513 15.3274C7.00665 15.369 7.07361 15.3716 7.11245 15.3315L11.0352 11.4087C12.1803 11.7141 13.4526 11.4181 14.3513 10.5194C15.4817 9.38771 15.6598 7.66539 14.883 6.35021ZM13.6696 9.83637C12.8915 10.6145 11.7236 10.7645 10.7955 10.2864L10.6776 10.4042L10.6763 10.4029L7.00665 14.0739L5.94594 13.0132L9.02763 9.93146C9.02763 9.93146 9.02763 9.9328 9.02897 9.9328L9.73611 9.22566C9.25799 8.29753 9.40799 7.12968 10.1861 6.35155C10.4371 6.10037 10.7393 5.90631 11.0721 5.78265C11.405 5.65899 11.7606 5.60864 12.1147 5.63503L10.3348 7.4136C10.2544 7.49409 10.2092 7.6032 10.2092 7.71695C10.2092 7.83071 10.2544 7.93982 10.3348 8.0203L12.0022 9.68771C12.0827 9.76811 12.1918 9.81326 12.3055 9.81326C12.4193 9.81326 12.5284 9.76811 12.6089 9.68771L14.3875 7.90914C14.437 8.60289 14.1946 9.31271 13.6696 9.83637Z" fill="#0469B9"/>
</g>
<defs>
<clipPath id="clip0_289_35752">
<rect width="12" height="12" fill="white" transform="translate(4 4)"/>
</clipPath>
</defs>
</svg>
