<svg width="20" height="20" viewBox="0 0 20 20" fill="none" xmlns="http://www.w3.org/2000/svg">
<circle cx="10" cy="10" r="9.5" fill="white" stroke="#076EB8"/>
<g clip-path="url(#clip0_289_35792)">
<path d="M14.2857 12.25V13.75C14.2857 14.1648 13.9027 14.5 13.4286 14.5H6.57143C6.09732 14.5 5.71429 14.1648 5.71429 13.75V12.25C5.71429 11.8352 5.33125 11.5 4.85714 11.5C4.38304 11.5 4 11.8352 4 12.25V13.75C4 14.9922 5.15179 16 6.57143 16H13.4286C14.8482 16 16 14.9922 16 13.75V12.25C16 11.8352 15.617 11.5 15.1429 11.5C14.6688 11.5 14.2857 11.8352 14.2857 12.25ZM9.39464 12.0297C9.72946 12.3227 10.2732 12.3227 10.608 12.0297L14.0366 9.02969C14.3714 8.73672 14.3714 8.26094 14.0366 7.96797C13.7018 7.675 13.158 7.675 12.8232 7.96797L10.8571 9.68828V4.75C10.8571 4.33516 10.4741 4 10 4C9.52589 4 9.14286 4.33516 9.14286 4.75V9.68828L7.17679 7.96797C6.84196 7.675 6.29821 7.675 5.96339 7.96797C5.62857 8.26094 5.62857 8.73672 5.96339 9.02969L9.39196 12.0297H9.39464Z" fill="#0469B9"/>
</g>
<defs>
<clipPath id="clip0_289_35792">
<rect width="12" height="12" fill="white" transform="matrix(0 1 -1 0 16 4)"/>
</clipPath>
</defs>
</svg>
