<svg width="500" height="375" viewBox="0 0 500 375" fill="none" xmlns="http://www.w3.org/2000/svg">
<g filter="url(#filter0_i_873_18968)">
<path d="M0 150C0 67.1573 67.1573 0 150 0H400C455.228 0 500 44.7715 500 100V275C500 330.228 455.228 375 400 375H150C67.1573 375 0 307.843 0 225V150Z" fill="#396BE0"/>
<g filter="url(#filter1_i_873_18968)">
<path d="M160 11H390C443.572 11 487 54.4284 487 108V268C487 321.572 443.572 365 390 365H160C78.8141 365 13 299.186 13 218V158C13 76.8141 78.8141 11 160 11Z" stroke="white" stroke-width="6"/>
<circle cx="250" cy="188" r="99.75" fill="white" stroke="#076EB8" stroke-width="0.5"/>
<path d="M304.735 160.133L253.401 189.866C251.335 191.066 248.735 191.066 246.601 189.866L195.268 160.133C191.601 158 190.668 153 193.468 149.866C195.401 147.666 197.601 145.866 199.935 144.6L236.068 124.6C243.801 120.266 256.335 120.266 264.068 124.6L300.201 144.6C302.535 145.866 304.735 147.733 306.668 149.866C309.335 153 308.401 158 304.735 160.133Z" fill="#0367CC"/>
<path d="M246.201 202.267V247.733C246.201 252.8 241.067 256.133 236.534 253.933C222.801 247.2 199.667 234.6 199.667 234.6C191.534 230 184.867 218.4 184.867 208.867V174.467C184.867 169.2 190.401 165.867 194.934 168.467L242.867 196.267C244.867 197.533 246.201 199.8 246.201 202.267Z" fill="#0367CC"/>
<path d="M253.801 202.267V247.733C253.801 252.8 258.934 256.133 263.467 253.933C277.201 247.2 300.334 234.6 300.334 234.6C308.467 230 315.134 218.4 315.134 208.867V174.467C315.134 169.2 309.601 165.867 305.067 168.467L257.134 196.267C255.134 197.533 253.801 199.8 253.801 202.267Z" fill="#0367CC"/>
</g>
</g>
<defs>
<filter id="filter0_i_873_18968" x="0" y="0" width="500" height="379" filterUnits="userSpaceOnUse" color-interpolation-filters="sRGB">
<feFlood flood-opacity="0" result="BackgroundImageFix"/>
<feBlend mode="normal" in="SourceGraphic" in2="BackgroundImageFix" result="shape"/>
<feColorMatrix in="SourceAlpha" type="matrix" values="0 0 0 0 0 0 0 0 0 0 0 0 0 0 0 0 0 0 127 0" result="hardAlpha"/>
<feOffset dy="4"/>
<feGaussianBlur stdDeviation="7.5"/>
<feComposite in2="hardAlpha" operator="arithmetic" k2="-1" k3="1"/>
<feColorMatrix type="matrix" values="0 0 0 0 0 0 0 0 0 0 0 0 0 0 0 0 0 0 0.1 0"/>
<feBlend mode="normal" in2="shape" result="effect1_innerShadow_873_18968"/>
</filter>
<filter id="filter1_i_873_18968" x="10" y="8" width="480" height="364" filterUnits="userSpaceOnUse" color-interpolation-filters="sRGB">
<feFlood flood-opacity="0" result="BackgroundImageFix"/>
<feBlend mode="normal" in="SourceGraphic" in2="BackgroundImageFix" result="shape"/>
<feColorMatrix in="SourceAlpha" type="matrix" values="0 0 0 0 0 0 0 0 0 0 0 0 0 0 0 0 0 0 127 0" result="hardAlpha"/>
<feOffset dy="4"/>
<feGaussianBlur stdDeviation="7.5"/>
<feComposite in2="hardAlpha" operator="arithmetic" k2="-1" k3="1"/>
<feColorMatrix type="matrix" values="0 0 0 0 0 0 0 0 0 0 0 0 0 0 0 0 0 0 0.1 0"/>
<feBlend mode="normal" in2="shape" result="effect1_innerShadow_873_18968"/>
</filter>
</defs>
</svg>
