<svg width="500" height="375" viewBox="0 0 500 375" fill="none" xmlns="http://www.w3.org/2000/svg">
<g filter="url(#filter0_i_873_18974)">
<path d="M0 150C0 67.1573 67.1573 0 150 0H400C455.228 0 500 44.7715 500 100V275C500 330.228 455.228 375 400 375H150C67.1573 375 0 307.843 0 225V150Z" fill="#396BE0"/>
<g filter="url(#filter1_i_873_18974)">
<path d="M160 11H390C443.572 11 487 54.4284 487 108V268C487 321.572 443.572 365 390 365H160C78.8141 365 13 299.186 13 218V158C13 76.8141 78.8141 11 160 11Z" stroke="white" stroke-width="6"/>
<circle cx="250" cy="188" r="99.75" fill="white" stroke="#076EB8" stroke-width="0.5"/>
</g>
</g>
<defs>
<filter id="filter0_i_873_18974" x="0" y="0" width="500" height="379" filterUnits="userSpaceOnUse" color-interpolation-filters="sRGB">
<feFlood flood-opacity="0" result="BackgroundImageFix"/>
<feBlend mode="normal" in="SourceGraphic" in2="BackgroundImageFix" result="shape"/>
<feColorMatrix in="SourceAlpha" type="matrix" values="0 0 0 0 0 0 0 0 0 0 0 0 0 0 0 0 0 0 127 0" result="hardAlpha"/>
<feOffset dy="4"/>
<feGaussianBlur stdDeviation="7.5"/>
<feComposite in2="hardAlpha" operator="arithmetic" k2="-1" k3="1"/>
<feColorMatrix type="matrix" values="0 0 0 0 0 0 0 0 0 0 0 0 0 0 0 0 0 0 0.1 0"/>
<feBlend mode="normal" in2="shape" result="effect1_innerShadow_873_18974"/>
</filter>
<filter id="filter1_i_873_18974" x="10" y="8" width="480" height="364" filterUnits="userSpaceOnUse" color-interpolation-filters="sRGB">
<feFlood flood-opacity="0" result="BackgroundImageFix"/>
<feBlend mode="normal" in="SourceGraphic" in2="BackgroundImageFix" result="shape"/>
<feColorMatrix in="SourceAlpha" type="matrix" values="0 0 0 0 0 0 0 0 0 0 0 0 0 0 0 0 0 0 127 0" result="hardAlpha"/>
<feOffset dy="4"/>
<feGaussianBlur stdDeviation="7.5"/>
<feComposite in2="hardAlpha" operator="arithmetic" k2="-1" k3="1"/>
<feColorMatrix type="matrix" values="0 0 0 0 0 0 0 0 0 0 0 0 0 0 0 0 0 0 0.1 0"/>
<feBlend mode="normal" in2="shape" result="effect1_innerShadow_873_18974"/>
</filter>
</defs>
</svg>
