<svg width="500" height="375" viewBox="0 0 500 375" fill="none" xmlns="http://www.w3.org/2000/svg">
<g filter="url(#filter0_i_873_18990)">
<path d="M0 150C0 67.1573 67.1573 0 150 0H350C432.843 0 500 67.1573 500 150V225C500 307.843 432.843 375 350 375H150C67.1573 375 0 307.843 0 225V150Z" fill="#5084FF"/>
<g filter="url(#filter1_i_873_18990)">
<path d="M160 11H340C421.186 11 487 76.8141 487 158V218C487 299.186 421.186 365 340 365H160C78.8141 365 13 299.186 13 218V158C13 76.8141 78.8141 11 160 11Z" stroke="white" stroke-width="6"/>
</g>
</g>
<circle cx="250" cy="189" r="99.75" fill="white" stroke="#076EB8" stroke-width="0.5"/>
<g filter="url(#filter2_d_873_18990)">
<path d="M260.82 129L190.334 139.39L226.079 165.883L309.787 148.394L260.82 129Z" fill="#38A0F0" fill-opacity="0.7"/>
<path d="M224.833 167.613L190 141.119L190.182 203.111L224.833 248.305V167.613Z" fill="#1D8ADF"/>
<path d="M309.977 150.645L226.998 168.653V249L309.977 219.389V150.645Z" fill="#0F6EB8" stroke="#0F6EB8" stroke-width="0.1"/>
</g>
<defs>
<filter id="filter0_i_873_18990" x="0" y="0" width="500" height="379" filterUnits="userSpaceOnUse" color-interpolation-filters="sRGB">
<feFlood flood-opacity="0" result="BackgroundImageFix"/>
<feBlend mode="normal" in="SourceGraphic" in2="BackgroundImageFix" result="shape"/>
<feColorMatrix in="SourceAlpha" type="matrix" values="0 0 0 0 0 0 0 0 0 0 0 0 0 0 0 0 0 0 127 0" result="hardAlpha"/>
<feOffset dy="4"/>
<feGaussianBlur stdDeviation="7.5"/>
<feComposite in2="hardAlpha" operator="arithmetic" k2="-1" k3="1"/>
<feColorMatrix type="matrix" values="0 0 0 0 0 0 0 0 0 0 0 0 0 0 0 0 0 0 0.1 0"/>
<feBlend mode="normal" in2="shape" result="effect1_innerShadow_873_18990"/>
</filter>
<filter id="filter1_i_873_18990" x="10" y="8" width="480" height="364" filterUnits="userSpaceOnUse" color-interpolation-filters="sRGB">
<feFlood flood-opacity="0" result="BackgroundImageFix"/>
<feBlend mode="normal" in="SourceGraphic" in2="BackgroundImageFix" result="shape"/>
<feColorMatrix in="SourceAlpha" type="matrix" values="0 0 0 0 0 0 0 0 0 0 0 0 0 0 0 0 0 0 127 0" result="hardAlpha"/>
<feOffset dy="4"/>
<feGaussianBlur stdDeviation="7.5"/>
<feComposite in2="hardAlpha" operator="arithmetic" k2="-1" k3="1"/>
<feColorMatrix type="matrix" values="0 0 0 0 0 0 0 0 0 0 0 0 0 0 0 0 0 0 0.1 0"/>
<feBlend mode="normal" in2="shape" result="effect1_innerShadow_873_18990"/>
</filter>
<filter id="filter2_d_873_18990" x="186" y="129" width="128.027" height="128.07" filterUnits="userSpaceOnUse" color-interpolation-filters="sRGB">
<feFlood flood-opacity="0" result="BackgroundImageFix"/>
<feColorMatrix in="SourceAlpha" type="matrix" values="0 0 0 0 0 0 0 0 0 0 0 0 0 0 0 0 0 0 127 0" result="hardAlpha"/>
<feOffset dy="4"/>
<feGaussianBlur stdDeviation="2"/>
<feComposite in2="hardAlpha" operator="out"/>
<feColorMatrix type="matrix" values="0 0 0 0 0 0 0 0 0 0 0 0 0 0 0 0 0 0 0.1 0"/>
<feBlend mode="normal" in2="BackgroundImageFix" result="effect1_dropShadow_873_18990"/>
<feBlend mode="normal" in="SourceGraphic" in2="effect1_dropShadow_873_18990" result="shape"/>
</filter>
</defs>
</svg>
