<svg width="500" height="500" viewBox="0 0 500 500" fill="none" xmlns="http://www.w3.org/2000/svg">
<rect width="500" height="500" fill="#A4D3FE" fill-opacity="0.4"/>
<rect x="0.25" y="0.25" width="499.5" height="499.5" stroke="#D8D8D8" stroke-opacity="0.2" stroke-width="0.5"/>
<path d="M250 0V150" stroke="#7C8DB5" stroke-opacity="0.7" stroke-width="8"/>
<path d="M250 500V350" stroke="#7C8DB5" stroke-opacity="0.7" stroke-width="8"/>
<path d="M500 250H350" stroke="#7C8DB5" stroke-opacity="0.7" stroke-width="8"/>
<path d="M356.769 216.041V283.958C356.769 335.104 334.894 356.979 283.748 356.979H282.394C236.144 356.979 213.852 338.749 209.998 297.916C209.686 293.749 212.811 289.791 217.081 289.374C221.352 288.958 225.206 292.083 225.623 296.458C228.644 329.166 244.061 341.354 282.498 341.354H283.852C326.248 341.354 341.248 326.354 341.248 283.958V216.041C341.248 173.645 326.248 158.645 283.852 158.645H282.498C243.852 158.645 228.436 171.041 225.623 204.374C225.206 208.645 221.456 211.874 217.186 211.458C212.915 211.041 209.686 207.395 210.102 203.02C213.644 161.562 236.04 143.02 282.602 143.02H283.956C334.894 143.02 356.769 164.895 356.769 216.041Z" fill="#076EB8"/>
<path d="M287.811 250C287.811 254.271 284.27 257.812 279.999 257.812H145.832C141.561 257.812 138.02 254.271 138.02 250C138.02 245.729 141.561 242.188 145.832 242.188H279.999C284.374 242.188 287.811 245.729 287.811 250Z" fill="#076EB8"/>
<path d="M299.479 249.999C299.479 251.979 298.75 253.958 297.188 255.52L262.292 290.416C259.271 293.437 254.271 293.437 251.25 290.416C248.229 287.395 248.229 282.395 251.25 279.374L280.625 249.999L251.25 220.624C248.229 217.604 248.229 212.604 251.25 209.583C254.271 206.562 259.271 206.562 262.292 209.583L297.188 244.479C298.75 246.041 299.479 248.02 299.479 249.999Z" fill="#076EB8"/>
</svg>
