<svg width="500" height="500" viewBox="0 0 500 500" fill="none" xmlns="http://www.w3.org/2000/svg">
<rect width="500" height="500" fill="#A4D3FE" fill-opacity="0.4"/>
<rect x="0.25" y="0.25" width="499.5" height="499.5" stroke="#D8D8D8" stroke-opacity="0.2" stroke-width="0.5"/>
<path d="M250 0V150" stroke="#7C8DB5" stroke-opacity="0.7" stroke-width="8"/>
<path d="M250 500V350" stroke="#7C8DB5" stroke-opacity="0.7" stroke-width="8"/>
<path d="M500 250H350" stroke="#7C8DB5" stroke-opacity="0.7" stroke-width="8"/>
<path d="M143.231 283.959L143.231 216.042C143.231 164.896 165.106 143.021 216.252 143.021H217.606C263.856 143.021 286.148 161.251 290.002 202.084C290.314 206.251 287.189 210.209 282.919 210.626C278.648 211.042 274.794 207.917 274.377 203.542C271.356 170.834 255.939 158.646 217.502 158.646H216.148C173.752 158.646 158.752 173.646 158.752 216.042L158.752 283.959C158.752 326.355 173.752 341.355 216.148 341.355H217.502C256.148 341.355 271.564 328.959 274.377 295.626C274.794 291.355 278.544 288.126 282.814 288.542C287.085 288.959 290.314 292.605 289.898 296.98C286.356 338.438 263.96 356.98 217.398 356.98H216.044C165.106 356.98 143.231 335.105 143.231 283.959Z" fill="#076EB8"/>
<path d="M210.939 250C210.939 245.729 214.48 242.187 218.751 242.187L337.293 242.188C341.564 242.188 345.105 245.729 345.105 250C345.105 254.271 341.564 257.812 337.293 257.812H218.751C214.48 257.812 210.939 254.271 210.939 250Z" fill="#076EB8"/>
<path d="M306.251 284.896C306.251 282.917 306.98 280.938 308.543 279.376L337.918 250.001L308.543 220.626C305.522 217.605 305.522 212.605 308.543 209.584C311.564 206.563 316.564 206.563 319.585 209.584L354.48 244.48C357.501 247.501 357.501 252.501 354.48 255.521L319.585 290.417C316.564 293.438 311.564 293.438 308.543 290.417C306.98 288.959 306.251 286.876 306.251 284.896Z" fill="#076EB8"/>
</svg>
