<svg width="500" height="500" viewBox="0 0 500 500" fill="none" xmlns="http://www.w3.org/2000/svg">
<rect width="500" height="500" fill="#A4D3FE" fill-opacity="0.4"/>
<rect x="0.25" y="0.25" width="499.5" height="499.5" stroke="#D8D8D8" stroke-opacity="0.2" stroke-width="0.5"/>
<path d="M250 0V150" stroke="#7C8DB5" stroke-opacity="0.7" stroke-width="8"/>
<path d="M0 250H150" stroke="#7C8DB5" stroke-opacity="0.7" stroke-width="8"/>
<path d="M500 250H350" stroke="#7C8DB5" stroke-opacity="0.7" stroke-width="8"/>
<path d="M356.771 216.041V283.958C356.771 335.104 334.896 356.979 283.75 356.979H282.396C236.146 356.979 213.854 338.749 210 297.916C209.688 293.749 212.813 289.791 217.083 289.374C221.354 288.958 225.208 292.083 225.625 296.458C228.646 329.166 244.063 341.354 282.5 341.354H283.854C326.25 341.354 341.25 326.354 341.25 283.958V216.041C341.25 173.645 326.25 158.645 283.854 158.645H282.5C243.854 158.645 228.438 171.041 225.625 204.374C225.208 208.645 221.458 211.874 217.188 211.458C212.917 211.041 209.688 207.395 210.104 203.02C213.646 161.562 236.042 143.02 282.604 143.02H283.958C334.896 143.02 356.771 164.895 356.771 216.041Z" fill="#076EB8"/>
<path d="M287.813 250C287.813 254.271 284.271 257.812 280.001 257.812H145.834C141.563 257.812 138.021 254.271 138.021 250C138.021 245.729 141.563 242.188 145.834 242.188H280.001C284.376 242.188 287.813 245.729 287.813 250Z" fill="#076EB8"/>
<path d="M299.479 249.999C299.479 251.979 298.75 253.958 297.188 255.52L262.292 290.416C259.271 293.437 254.271 293.437 251.25 290.416C248.229 287.395 248.229 282.395 251.25 279.374L280.625 249.999L251.25 220.624C248.229 217.604 248.229 212.604 251.25 209.583C254.271 206.562 259.271 206.562 262.292 209.583L297.188 244.479C298.75 246.041 299.479 248.02 299.479 249.999Z" fill="#076EB8"/>
</svg>
