<svg width="500" height="500" viewBox="0 0 500 500" fill="none" xmlns="http://www.w3.org/2000/svg">
<g clip-path="url(#clip0_873_17829)">
<rect width="500" height="500" fill="#A4D3FE" fill-opacity="0.4"/>
<path d="M250 0V104.905" stroke="#7C8DB5" stroke-opacity="0.7" stroke-width="8"/>
<path d="M500 250L400 250" stroke="#7C8DB5" stroke-opacity="0.7" stroke-width="8"/>
<path d="M250 500V375" stroke="#7C8DB5" stroke-opacity="0.7" stroke-width="8"/>
<g filter="url(#filter0_d_873_17829)">
<path d="M276.986 100.02L102.099 125.798C101.658 125.863 101.516 126.429 101.874 126.694L190.084 192.074C190.198 192.159 190.344 192.191 190.484 192.162L397.904 148.826C398.389 148.724 398.447 148.054 397.986 147.871L277.243 100.049C277.161 100.017 277.073 100.007 276.986 100.02Z" fill="#38A0F0"/>
<path d="M186.885 196.388L100.806 130.917C100.476 130.667 100.002 130.903 100.003 131.317L100.455 285.114C100.456 285.224 100.492 285.33 100.559 285.417L186.185 397.1C186.476 397.48 187.082 397.274 187.082 396.796V196.786C187.082 196.63 187.009 196.483 186.885 196.388Z" fill="#1D8ADF"/>
<path d="M399.329 154.243L192.882 199.047C192.652 199.097 192.488 199.301 192.488 199.536V399.29C192.488 399.635 192.831 399.877 193.156 399.76L399.603 326.091C399.802 326.02 399.935 325.832 399.935 325.62V154.731C399.935 154.413 399.641 154.175 399.329 154.243Z" fill="#0F6EB8" stroke="#0F6EB8" stroke-width="0.1"/>
</g>
</g>
<rect x="2" y="2" width="496" height="496" stroke="#D8D8D8" stroke-opacity="0.2" stroke-width="4"/>
<defs>
<filter id="filter0_d_873_17829" x="96.0039" y="100.014" width="307.98" height="307.826" filterUnits="userSpaceOnUse" color-interpolation-filters="sRGB">
<feFlood flood-opacity="0" result="BackgroundImageFix"/>
<feColorMatrix in="SourceAlpha" type="matrix" values="0 0 0 0 0 0 0 0 0 0 0 0 0 0 0 0 0 0 127 0" result="hardAlpha"/>
<feOffset dy="4"/>
<feGaussianBlur stdDeviation="2"/>
<feComposite in2="hardAlpha" operator="out"/>
<feColorMatrix type="matrix" values="0 0 0 0 0 0 0 0 0 0 0 0 0 0 0 0 0 0 0.1 0"/>
<feBlend mode="normal" in2="BackgroundImageFix" result="effect1_dropShadow_873_17829"/>
<feBlend mode="normal" in="SourceGraphic" in2="effect1_dropShadow_873_17829" result="shape"/>
</filter>
<clipPath id="clip0_873_17829">
<rect width="500" height="500" fill="white"/>
</clipPath>
</defs>
</svg>
