<svg width="500" height="500" viewBox="0 0 500 500" fill="none" xmlns="http://www.w3.org/2000/svg">
<rect width="500" height="500" fill="#A4D3FE" fill-opacity="0.4"/>
<rect x="2" y="2" width="496" height="496" stroke="#D8D8D8" stroke-opacity="0.2" stroke-width="4"/>
<path d="M250 0V150" stroke="#7C8DB5" stroke-opacity="0.7" stroke-width="8"/>
<path d="M293.524 183.547C289.766 187.305 283.533 187.305 279.775 183.547L249.984 153.756L220.194 183.547C216.436 187.305 210.203 187.305 206.445 183.547C202.687 179.788 202.687 173.555 206.445 169.797L243.11 133.132C246.868 129.374 253.101 129.374 256.859 133.132L293.524 169.797C297.282 173.555 297.282 179.788 293.524 183.547Z" fill="#076EB8"/>
<path d="M293.524 330.203L256.859 366.868C253.101 370.626 246.868 370.626 243.11 366.868L206.445 330.203C202.687 326.445 202.687 320.212 206.445 316.453C210.203 312.695 216.436 312.695 220.194 316.453L249.984 346.244L279.775 316.453C283.533 312.695 289.766 312.695 293.524 316.453C297.282 320.212 297.282 326.445 293.524 330.203Z" fill="#076EB8"/>
<path d="M183.519 293.539C179.761 297.298 173.528 297.298 169.77 293.539L133.105 256.875C129.347 253.117 129.347 246.883 133.105 243.125L169.77 206.461C173.528 202.702 179.761 202.702 183.519 206.461C187.277 210.219 187.277 216.452 183.519 220.21L153.729 250L183.519 279.79C187.277 283.548 187.277 289.781 183.519 293.539Z" fill="#076EB8"/>
<path d="M366.815 256.875L330.15 293.539C326.392 297.298 320.159 297.298 316.401 293.539C312.643 289.781 312.643 283.548 316.401 279.79L346.191 250L316.401 220.21C312.643 216.452 312.643 210.219 316.401 206.461C320.159 202.702 326.392 202.702 330.15 206.461L366.815 243.125C370.573 246.883 370.573 253.117 366.815 256.875Z" fill="#076EB8"/>
</svg>
