<svg width="25" height="25" viewBox="0 0 25 25" fill="none" xmlns="http://www.w3.org/2000/svg">
<circle cx="12.5" cy="12.5" r="12" stroke="#0469B9"/>
<path d="M14.8551 7.29167L13.7637 8.38305L17.1156 11.735L18.207 10.6436C18.5375 10.3154 18.7223 9.86819 18.7223 9.4015C18.7223 8.93481 18.5375 8.48757 18.207 8.15942L17.3392 7.29167C17.0111 6.9611 16.5638 6.77637 16.0971 6.77637C15.6305 6.77637 15.1832 6.9611 14.8551 7.29167ZM12.9397 9.20705L7.70886 14.4354C7.44878 14.6955 7.25919 15.0212 7.15953 15.3761L6.29907 18.4825C6.24316 18.6843 6.29907 18.903 6.44977 19.0513C6.60047 19.1996 6.81681 19.2579 7.01855 19.202L10.125 18.3391C10.4798 18.2395 10.8031 18.0523 11.0656 17.7898L16.2916 12.559L12.9397 9.20705Z" fill="#0469B9"/>
</svg>
