<svg width="17" height="20" viewBox="0 0 17 20" fill="none" xmlns="http://www.w3.org/2000/svg">
<path d="M3.57143 3.88393C3.47321 3.88393 3.39286 3.96429 3.39286 4.0625V5.13393C3.39286 5.23214 3.47321 5.3125 3.57143 5.3125H12.1429C12.2411 5.3125 12.3214 5.23214 12.3214 5.13393V4.0625C12.3214 3.96429 12.2411 3.88393 12.1429 3.88393H3.57143ZM7.67857 7.09821H3.57143C3.47321 7.09821 3.39286 7.17857 3.39286 7.27679V8.34821C3.39286 8.44643 3.47321 8.52679 3.57143 8.52679H7.67857C7.77678 8.52679 7.85714 8.44643 7.85714 8.34821V7.27679C7.85714 7.17857 7.77678 7.09821 7.67857 7.09821ZM6.60714 17.3214H1.60714V1.60714H14.1071V8.75C14.1071 8.84821 14.1875 8.92857 14.2857 8.92857H15.5357C15.6339 8.92857 15.7143 8.84821 15.7143 8.75V0.714286C15.7143 0.319196 15.3951 0 15 0H0.714286C0.319196 0 0 0.319196 0 0.714286V18.2143C0 18.6094 0.319196 18.9286 0.714286 18.9286H6.60714C6.70536 18.9286 6.78571 18.8482 6.78571 18.75V17.5C6.78571 17.4018 6.70536 17.3214 6.60714 17.3214ZM16.4286 15.3571H13.2143V14.5402C14.2478 14.2321 15 13.2768 15 12.1429C15 10.7612 13.8817 9.64286 12.5 9.64286C11.1183 9.64286 10 10.7612 10 12.1429C10 13.2746 10.7522 14.2321 11.7857 14.5402V15.3571H8.57143C8.375 15.3571 8.21428 15.5179 8.21428 15.7143V19.1071C8.21428 19.3036 8.375 19.4643 8.57143 19.4643H16.4286C16.625 19.4643 16.7857 19.3036 16.7857 19.1071V15.7143C16.7857 15.5179 16.625 15.3571 16.4286 15.3571ZM11.3839 12.1429C11.3839 11.5268 11.8839 11.0268 12.5 11.0268C13.1161 11.0268 13.6161 11.5268 13.6161 12.1429C13.6161 12.7589 13.1161 13.2589 12.5 13.2589C11.8839 13.2589 11.3839 12.7589 11.3839 12.1429ZM15.4018 18.0804H9.59821V16.7411H15.4018V18.0804Z" fill="#0469B9"/>
</svg>
