<svg width="20" height="20" viewBox="0 0 20 20" fill="none" xmlns="http://www.w3.org/2000/svg">
<path d="M19.5007 8.51786H3.82838L13.2087 0.375C13.3587 0.24375 13.2677 0 13.0695 0H10.6989C10.5945 0 10.4953 0.0374998 10.4177 0.104464L0.295348 8.8875C0.202639 8.96786 0.128287 9.06721 0.0773298 9.17882C0.0263724 9.29043 0 9.41168 0 9.53438C0 9.65707 0.0263724 9.77832 0.0773298 9.88993C0.128287 10.0015 0.202639 10.1009 0.295348 10.1812L10.4766 19.0179C10.5168 19.0527 10.565 19.0714 10.6159 19.0714H13.0668C13.265 19.0714 13.3561 18.825 13.2061 18.6964L3.82838 10.5536H19.5007C19.6186 10.5536 19.715 10.4571 19.715 10.3393V8.73214C19.715 8.61429 19.6186 8.51786 19.5007 8.51786Z" fill="black"/>
</svg>
