<svg width="34" height="34" viewBox="0 0 34 34" fill="none" xmlns="http://www.w3.org/2000/svg">
<path d="M4.1665 13.6864C4.1665 12.2641 5.31943 11.1112 6.74165 11.1112C7.71704 11.1112 8.60871 10.5601 9.04492 9.68772L10.185 7.40752C10.5465 6.68455 10.7272 6.32307 11.0081 6.06996C11.1868 5.90894 11.393 5.78148 11.6169 5.69368C11.9689 5.55566 12.3731 5.55566 13.1814 5.55566H20.1516C20.9599 5.55566 21.3641 5.55566 21.7161 5.69368C21.94 5.78148 22.1462 5.90894 22.3249 6.06996C22.6058 6.32307 22.7865 6.68455 23.148 7.40752L24.2881 9.68772C24.7243 10.5601 25.616 11.1112 26.5914 11.1112C28.0136 11.1112 29.1665 12.2641 29.1665 13.6864V21.7779C29.1665 24.6063 29.1665 26.0205 28.2878 26.8992C27.4091 27.7779 25.9949 27.7779 23.1665 27.7779H10.1665C7.33808 27.7779 5.92386 27.7779 5.04518 26.8992C4.1665 26.0205 4.1665 24.6063 4.1665 21.7779V13.6864Z" stroke="#545454"/>
<circle cx="16.6669" cy="18.0556" r="5.05556" stroke="#545454"/>
</svg>
