<svg width="35" height="35" viewBox="0 0 35 35" fill="none" xmlns="http://www.w3.org/2000/svg">
<g clip-path="url(#clip0_1725_15198)">
<rect x="9.33331" y="9.33301" width="16.3333" height="16.3333" fill="white"/>
<path d="M17.5 0C7.81098 0 0 7.81098 0 17.5C0 27.189 7.81098 35 17.5 35C27.189 35 35 27.189 35 17.5C35 7.81098 27.189 0 17.5 0ZM24.372 22.3659C24.372 23.4329 23.5183 24.3293 22.4085 24.3293H12.6341C11.5671 24.3293 10.6707 23.4756 10.6707 22.3659L10.7134 12.6341C10.7134 11.5671 11.5671 10.6707 12.6768 10.6707H22.4085C23.4756 10.6707 24.372 11.5244 24.372 12.6341V22.3659Z" fill="#C91313"/>
</g>
<defs>
<clipPath id="clip0_1725_15198">
<rect width="35" height="35" fill="white"/>
</clipPath>
</defs>
</svg>
