<svg width="40" height="40" viewBox="0 0 40 40" fill="none" xmlns="http://www.w3.org/2000/svg">
<rect x="0.5" y="0.5" width="39" height="39" rx="7.5" stroke="#1378C0"/>
<path d="M19.5 32.9375C12.0875 32.9375 6.0625 26.9125 6.0625 19.5C6.0625 12.0875 12.0875 6.0625 19.5 6.0625C26.9125 6.0625 32.9375 12.0875 32.9375 19.5C32.9375 26.9125 26.9125 32.9375 19.5 32.9375ZM19.5 7.9375C13.125 7.9375 7.9375 13.125 7.9375 19.5C7.9375 25.875 13.125 31.0625 19.5 31.0625C25.875 31.0625 31.0625 25.875 31.0625 19.5C31.0625 13.125 25.875 7.9375 19.5 7.9375Z" fill="#1378C0"/>
<path d="M24.5 20.4375H14.5C13.9875 20.4375 13.5625 20.0125 13.5625 19.5C13.5625 18.9875 13.9875 18.5625 14.5 18.5625H24.5C25.0125 18.5625 25.4375 18.9875 25.4375 19.5C25.4375 20.0125 25.0125 20.4375 24.5 20.4375Z" fill="#1378C0"/>
<path d="M19.5 25.4375C18.9875 25.4375 18.5625 25.0125 18.5625 24.5V14.5C18.5625 13.9875 18.9875 13.5625 19.5 13.5625C20.0125 13.5625 20.4375 13.9875 20.4375 14.5V24.5C20.4375 25.0125 20.0125 25.4375 19.5 25.4375Z" fill="#1378C0"/>
</svg>
