<svg width="40" height="40" viewBox="0 0 40 40" fill="none" xmlns="http://www.w3.org/2000/svg">
<rect x="0.5" y="0.5" width="39" height="39" rx="7.5" stroke="#1378C0"/>
<path d="M15.1458 10.48H14.9167C15.0427 10.48 15.1458 10.381 15.1458 10.26V10.48H23.8542V10.26C23.8542 10.381 23.9573 10.48 24.0833 10.48H23.8542V12.46H25.9167V10.26C25.9167 9.28925 25.0945 8.5 24.0833 8.5H14.9167C13.9055 8.5 13.0833 9.28925 13.0833 10.26V12.46H15.1458V10.48ZM29.5833 12.46H9.41667C8.90964 12.46 8.5 12.8533 8.5 13.34V14.22C8.5 14.341 8.60312 14.44 8.72917 14.44H10.4594L11.1669 28.8225C11.2128 29.7603 12.0206 30.5 12.9974 30.5H26.0026C26.9823 30.5 27.7872 29.763 27.8331 28.8225L28.5406 14.44H30.2708C30.3969 14.44 30.5 14.341 30.5 14.22V13.34C30.5 12.8533 30.0904 12.46 29.5833 12.46ZM25.782 28.52H13.218L12.5247 14.44H26.4753L25.782 28.52Z" fill="#1378C0"/>
</svg>
