<svg width="17" height="20" viewBox="0 0 17 20" fill="none" xmlns="http://www.w3.org/2000/svg">
<path d="M12.3214 5.26786V4.19643C12.3214 4.09821 12.2411 4.01786 12.1429 4.01786H3.57143C3.47321 4.01786 3.39286 4.09821 3.39286 4.19643V5.26786C3.39286 5.36607 3.47321 5.44643 3.57143 5.44643H12.1429C12.2411 5.44643 12.3214 5.36607 12.3214 5.26786ZM3.57143 7.23214C3.47321 7.23214 3.39286 7.3125 3.39286 7.41071V8.48214C3.39286 8.58036 3.47321 8.66071 3.57143 8.66071H7.67857C7.77679 8.66071 7.85714 8.58036 7.85714 8.48214V7.41071C7.85714 7.3125 7.77679 7.23214 7.67857 7.23214H3.57143ZM11.9643 9.82143C9.30134 9.82143 7.14286 11.9799 7.14286 14.6429C7.14286 17.3058 9.30134 19.4643 11.9643 19.4643C14.6272 19.4643 16.7857 17.3058 16.7857 14.6429C16.7857 11.9799 14.6272 9.82143 11.9643 9.82143ZM14.3638 17.0424C13.7232 17.683 12.8705 18.0357 11.9643 18.0357C11.058 18.0357 10.2054 17.683 9.56473 17.0424C8.92411 16.4018 8.57143 15.5491 8.57143 14.6429C8.57143 13.7366 8.92411 12.8839 9.56473 12.2433C10.2054 11.6027 11.058 11.25 11.9643 11.25C12.8705 11.25 13.7232 11.6027 14.3638 12.2433C15.0045 12.8839 15.3571 13.7366 15.3571 14.6429C15.3571 15.5491 15.0045 16.4018 14.3638 17.0424ZM13.9509 12.9464H12.9621C12.904 12.9464 12.8504 12.9732 12.817 13.0201L11.3996 14.9799L10.8839 14.2679C10.8674 14.2449 10.8456 14.2262 10.8204 14.2133C10.7951 14.2005 10.7672 14.194 10.7388 14.1942H9.75446C9.60938 14.1942 9.52455 14.3594 9.60938 14.4777L11.2567 16.7567C11.3281 16.8549 11.4732 16.8549 11.5446 16.7567L14.0938 13.2299C14.1808 13.1116 14.096 12.9464 13.9509 12.9464ZM6.78571 17.3214H1.60714V1.60714H14.1071V9.28571C14.1071 9.38393 14.1875 9.46429 14.2857 9.46429H15.5357C15.6339 9.46429 15.7143 9.38393 15.7143 9.28571V0.714286C15.7143 0.319196 15.3951 0 15 0H0.714286C0.319196 0 0 0.319196 0 0.714286V18.2143C0 18.6094 0.319196 18.9286 0.714286 18.9286H6.78571C6.88393 18.9286 6.96429 18.8482 6.96429 18.75V17.5C6.96429 17.4018 6.88393 17.3214 6.78571 17.3214Z" fill="#076EB8"/>
</svg>
