<svg width="30" height="30" viewBox="0 0 30 30" fill="none" xmlns="http://www.w3.org/2000/svg">
<path d="M20.8936 8.29729V6.69015C20.8936 6.54283 20.7731 6.42229 20.6258 6.42229H7.76864C7.62132 6.42229 7.50078 6.54283 7.50078 6.69015V8.29729C7.50078 8.44462 7.62132 8.56515 7.76864 8.56515H20.6258C20.7731 8.56515 20.8936 8.44462 20.8936 8.29729ZM7.76864 11.2437C7.62132 11.2437 7.50078 11.3643 7.50078 11.5116V13.1187C7.50078 13.266 7.62132 13.3866 7.76864 13.3866H13.9294C14.0767 13.3866 14.1972 13.266 14.1972 13.1187V11.5116C14.1972 11.3643 14.0767 11.2437 13.9294 11.2437H7.76864ZM20.3579 15.1277C16.3635 15.1277 13.1258 18.3654 13.1258 22.3598C13.1258 26.3542 16.3635 29.5919 20.3579 29.5919C24.3523 29.5919 27.5901 26.3542 27.5901 22.3598C27.5901 18.3654 24.3523 15.1277 20.3579 15.1277ZM23.9573 25.9591C22.9963 26.9201 21.7173 27.4491 20.3579 27.4491C18.9986 27.4491 17.7195 26.9201 16.7586 25.9591C15.7977 24.9982 15.2686 23.7192 15.2686 22.3598C15.2686 21.0004 15.7977 19.7214 16.7586 18.7605C17.7195 17.7995 18.9986 17.2705 20.3579 17.2705C21.7173 17.2705 22.9963 17.7995 23.9573 18.7605C24.9182 19.7214 25.4472 21.0004 25.4472 22.3598C25.4472 23.7192 24.9182 24.9982 23.9573 25.9591ZM23.3378 19.8152H21.8546C21.7675 19.8152 21.6872 19.8553 21.6369 19.9256L19.5108 22.8654L18.7374 21.7973C18.7126 21.7628 18.6799 21.7347 18.642 21.7155C18.6042 21.6963 18.5622 21.6864 18.5198 21.6868H17.0432C16.8256 21.6868 16.6983 21.9346 16.8256 22.112L19.2965 25.5306C19.4037 25.6779 19.6213 25.6779 19.7285 25.5306L23.5521 20.2404C23.6827 20.0629 23.5555 19.8152 23.3378 19.8152ZM12.5901 26.3777H4.82221V2.80622H23.5722V14.3241C23.5722 14.4714 23.6927 14.5919 23.8401 14.5919H25.7151C25.8624 14.5919 25.9829 14.4714 25.9829 14.3241V1.46694C25.9829 0.874302 25.5041 0.395508 24.9115 0.395508H3.48293C2.89029 0.395508 2.4115 0.874302 2.4115 1.46694V27.7169C2.4115 28.3096 2.89029 28.7884 3.48293 28.7884H12.5901C12.7374 28.7884 12.8579 28.6678 12.8579 28.5205V26.6455C12.8579 26.4982 12.7374 26.3777 12.5901 26.3777Z" fill="#484848"/>
</svg>
