<svg width="13" height="11" viewBox="0 0 13 11" fill="none" xmlns="http://www.w3.org/2000/svg">
<path d="M12.375 0H0.125C0.05625 0 0 0.05625 0 0.125V1.125C0 1.19375 0.05625 1.25 0.125 1.25H12.375C12.4438 1.25 12.5 1.19375 12.5 1.125V0.125C12.5 0.05625 12.4438 0 12.375 0ZM12.375 9.75H0.125C0.05625 9.75 0 9.80625 0 9.875V10.875C0 10.9438 0.05625 11 0.125 11H12.375C12.4438 11 12.5 10.9438 12.5 10.875V9.875C12.5 9.80625 12.4438 9.75 12.375 9.75ZM12.375 4.875H0.125C0.05625 4.875 0 4.93125 0 5V6C0 6.06875 0.05625 6.125 0.125 6.125H12.375C12.4438 6.125 12.5 6.06875 12.5 6V5C12.5 4.93125 12.4438 4.875 12.375 4.875Z" fill="#8C8C8C" fill-opacity="0.4"/>
</svg>
