<svg width="50" height="26" viewBox="0 0 50 26" fill="none" xmlns="http://www.w3.org/2000/svg">
<rect width="50" height="26" rx="13" fill="#FFFCDF"/>
<path d="M10.4746 8.04688V18H9.15527V8.04688H10.4746ZM14.6445 12.5244V13.6045H10.1875V12.5244H14.6445ZM15.3213 8.04688V9.12695H10.1875V8.04688H15.3213ZM23.2168 16.9268V18H17.9463V16.9268H23.2168ZM18.2129 8.04688V18H16.8936V8.04688H18.2129ZM22.5195 12.3262V13.3994H17.9463V12.3262H22.5195ZM23.1484 8.04688V9.12695H17.9463V8.04688H23.1484ZM26.1699 8.04688V18H24.8506V8.04688H26.1699ZM30.3398 12.5244V13.6045H25.8828V12.5244H30.3398ZM31.0166 8.04688V9.12695H25.8828V8.04688H31.0166ZM40.252 12.709V13.3379C40.252 14.0853 40.1585 14.7552 39.9717 15.3477C39.7848 15.9401 39.516 16.4437 39.165 16.8584C38.8141 17.2731 38.3926 17.5898 37.9004 17.8086C37.4128 18.0273 36.8659 18.1367 36.2598 18.1367C35.6719 18.1367 35.1318 18.0273 34.6396 17.8086C34.152 17.5898 33.7282 17.2731 33.3682 16.8584C33.0127 16.4437 32.737 15.9401 32.541 15.3477C32.3451 14.7552 32.2471 14.0853 32.2471 13.3379V12.709C32.2471 11.9616 32.3428 11.2939 32.5342 10.7061C32.7301 10.1136 33.0059 9.61003 33.3613 9.19531C33.7168 8.77604 34.1383 8.45703 34.626 8.23828C35.1182 8.01953 35.6582 7.91016 36.2461 7.91016C36.8522 7.91016 37.3991 8.01953 37.8867 8.23828C38.3789 8.45703 38.8005 8.77604 39.1514 9.19531C39.5068 9.61003 39.778 10.1136 39.9648 10.7061C40.1562 11.2939 40.252 11.9616 40.252 12.709ZM38.9463 13.3379V12.6953C38.9463 12.1029 38.8848 11.5788 38.7617 11.123C38.6432 10.6673 38.4678 10.2845 38.2354 9.97461C38.0029 9.66471 37.7181 9.43001 37.3809 9.27051C37.0482 9.111 36.6699 9.03125 36.2461 9.03125C35.8359 9.03125 35.4645 9.111 35.1318 9.27051C34.8037 9.43001 34.5212 9.66471 34.2842 9.97461C34.0518 10.2845 33.8717 10.6673 33.7441 11.123C33.6165 11.5788 33.5527 12.1029 33.5527 12.6953V13.3379C33.5527 13.9349 33.6165 14.4635 33.7441 14.9238C33.8717 15.3796 34.054 15.7646 34.291 16.0791C34.5326 16.389 34.8174 16.6237 35.1455 16.7832C35.4782 16.9427 35.8496 17.0225 36.2598 17.0225C36.6882 17.0225 37.0687 16.9427 37.4014 16.7832C37.734 16.6237 38.0143 16.389 38.2422 16.0791C38.4746 15.7646 38.6501 15.3796 38.7686 14.9238C38.887 14.4635 38.9463 13.9349 38.9463 13.3379Z" fill="#FF8D28"/>
</svg>
