<svg width="50" height="26" viewBox="0 0 50 26" fill="none" xmlns="http://www.w3.org/2000/svg">
<rect width="50" height="26" rx="13" fill="#D1E9FF"/>
<path d="M12.9746 8.04688V18H11.6553V8.04688H12.9746ZM17.1445 12.5244V13.6045H12.6875V12.5244H17.1445ZM17.8213 8.04688V9.12695H12.6875V8.04688H17.8213ZM20.8086 8.04688V18H19.4893V8.04688H20.8086ZM24.5273 8.04688V18H23.208V8.04688H24.5273ZM28.6973 12.5244V13.6045H24.2402V12.5244H28.6973ZM29.374 8.04688V9.12695H24.2402V8.04688H29.374ZM38.6094 12.709V13.3379C38.6094 14.0853 38.516 14.7552 38.3291 15.3477C38.1423 15.9401 37.8734 16.4437 37.5225 16.8584C37.1715 17.2731 36.75 17.5898 36.2578 17.8086C35.7702 18.0273 35.2233 18.1367 34.6172 18.1367C34.0293 18.1367 33.4893 18.0273 32.9971 17.8086C32.5094 17.5898 32.0856 17.2731 31.7256 16.8584C31.3701 16.4437 31.0944 15.9401 30.8984 15.3477C30.7025 14.7552 30.6045 14.0853 30.6045 13.3379V12.709C30.6045 11.9616 30.7002 11.2939 30.8916 10.7061C31.0876 10.1136 31.3633 9.61003 31.7188 9.19531C32.0742 8.77604 32.4958 8.45703 32.9834 8.23828C33.4756 8.01953 34.0156 7.91016 34.6035 7.91016C35.2096 7.91016 35.7565 8.01953 36.2441 8.23828C36.7363 8.45703 37.1579 8.77604 37.5088 9.19531C37.8643 9.61003 38.1354 10.1136 38.3223 10.7061C38.5137 11.2939 38.6094 11.9616 38.6094 12.709ZM37.3037 13.3379V12.6953C37.3037 12.1029 37.2422 11.5788 37.1191 11.123C37.0007 10.6673 36.8252 10.2845 36.5928 9.97461C36.3604 9.66471 36.0755 9.43001 35.7383 9.27051C35.4056 9.111 35.0273 9.03125 34.6035 9.03125C34.1934 9.03125 33.8219 9.111 33.4893 9.27051C33.1611 9.43001 32.8786 9.66471 32.6416 9.97461C32.4092 10.2845 32.2292 10.6673 32.1016 11.123C31.974 11.5788 31.9102 12.1029 31.9102 12.6953V13.3379C31.9102 13.9349 31.974 14.4635 32.1016 14.9238C32.2292 15.3796 32.4115 15.7646 32.6484 16.0791C32.89 16.389 33.1748 16.6237 33.5029 16.7832C33.8356 16.9427 34.207 17.0225 34.6172 17.0225C35.0456 17.0225 35.4261 16.9427 35.7588 16.7832C36.0915 16.6237 36.3717 16.389 36.5996 16.0791C36.832 15.7646 37.0075 15.3796 37.126 14.9238C37.2445 14.4635 37.3037 13.9349 37.3037 13.3379Z" fill="#1976D2"/>
</svg>
