<svg width="50" height="26" viewBox="0 0 50 26" fill="none" xmlns="http://www.w3.org/2000/svg">
<rect width="50" height="26" rx="13" fill="#C5FFD6" fill-opacity="0.5"/>
<path d="M17.6914 16.9268V18H12.7148V16.9268H17.6914ZM12.9746 8.04688V18H11.6553V8.04688H12.9746ZM20.6172 8.04688V18H19.2979V8.04688H20.6172ZM24.3359 8.04688V18H23.0166V8.04688H24.3359ZM28.5059 12.5244V13.6045H24.0488V12.5244H28.5059ZM29.1826 8.04688V9.12695H24.0488V8.04688H29.1826ZM38.418 12.709V13.3379C38.418 14.0853 38.3245 14.7552 38.1377 15.3477C37.9508 15.9401 37.682 16.4437 37.3311 16.8584C36.9801 17.2731 36.5586 17.5898 36.0664 17.8086C35.5788 18.0273 35.0319 18.1367 34.4258 18.1367C33.8379 18.1367 33.2979 18.0273 32.8057 17.8086C32.318 17.5898 31.8942 17.2731 31.5342 16.8584C31.1787 16.4437 30.903 15.9401 30.707 15.3477C30.5111 14.7552 30.4131 14.0853 30.4131 13.3379V12.709C30.4131 11.9616 30.5088 11.2939 30.7002 10.7061C30.8962 10.1136 31.1719 9.61003 31.5273 9.19531C31.8828 8.77604 32.3044 8.45703 32.792 8.23828C33.2842 8.01953 33.8242 7.91016 34.4121 7.91016C35.0182 7.91016 35.5651 8.01953 36.0527 8.23828C36.5449 8.45703 36.9665 8.77604 37.3174 9.19531C37.6729 9.61003 37.944 10.1136 38.1309 10.7061C38.3223 11.2939 38.418 11.9616 38.418 12.709ZM37.1123 13.3379V12.6953C37.1123 12.1029 37.0508 11.5788 36.9277 11.123C36.8092 10.6673 36.6338 10.2845 36.4014 9.97461C36.1689 9.66471 35.8841 9.43001 35.5469 9.27051C35.2142 9.111 34.8359 9.03125 34.4121 9.03125C34.002 9.03125 33.6305 9.111 33.2979 9.27051C32.9697 9.43001 32.6872 9.66471 32.4502 9.97461C32.2178 10.2845 32.0378 10.6673 31.9102 11.123C31.7826 11.5788 31.7188 12.1029 31.7188 12.6953V13.3379C31.7188 13.9349 31.7826 14.4635 31.9102 14.9238C32.0378 15.3796 32.2201 15.7646 32.457 16.0791C32.6986 16.389 32.9834 16.6237 33.3115 16.7832C33.6442 16.9427 34.0156 17.0225 34.4258 17.0225C34.8542 17.0225 35.2347 16.9427 35.5674 16.7832C35.9001 16.6237 36.1803 16.389 36.4082 16.0791C36.6406 15.7646 36.8161 15.3796 36.9346 14.9238C37.0531 14.4635 37.1123 13.9349 37.1123 13.3379Z" fill="#34C759"/>
</svg>
