<svg width="20" height="20" viewBox="0 0 20 20" fill="none" xmlns="http://www.w3.org/2000/svg">
<path d="M7.52396 11.6666C7.19896 11.1916 7.01562 10.6166 7.01562 9.99993C7.01562 8.34993 8.34896 7.0166 9.99896 7.0166C11.649 7.0166 12.9823 8.34993 12.9823 9.99993C12.9823 11.6499 11.649 12.9833 9.99896 12.9833" stroke="#076EB8" stroke-width="1.5" stroke-linecap="round" stroke-linejoin="round"/>
<path d="M14.6352 4.65007C13.2268 3.65007 11.6435 3.1084 10.0018 3.1084C7.06016 3.1084 4.31849 4.84173 2.41016 7.84173C1.66016 9.01673 1.66016 10.9917 2.41016 12.1667C4.31849 15.1667 7.06016 16.9001 10.0018 16.9001C12.9435 16.9001 15.6852 15.1667 17.5935 12.1667C18.3435 10.9917 18.3435 9.01673 17.5935 7.84173" stroke="#076EB8" stroke-width="1.5" stroke-linecap="round" stroke-linejoin="round"/>
</svg>
