<svg width="20" height="20" viewBox="0 0 20 20" fill="none" xmlns="http://www.w3.org/2000/svg">
<path d="M7.67941 8.4382H18.3937C18.4919 8.4382 18.5723 8.35784 18.5723 8.25963V7.00963C18.5723 6.91141 18.4919 6.83106 18.3937 6.83106H7.67941C7.58119 6.83106 7.50084 6.91141 7.50084 7.00963V8.25963C7.50084 8.35784 7.58119 8.4382 7.67941 8.4382ZM7.50084 12.9918C7.50084 13.09 7.58119 13.1703 7.67941 13.1703H18.3937C18.4919 13.1703 18.5723 13.09 18.5723 12.9918V11.7418C18.5723 11.6436 18.4919 11.5632 18.3937 11.5632H7.67941C7.58119 11.5632 7.50084 11.6436 7.50084 11.7418V12.9918ZM18.7508 2.14355H1.25084C1.15262 2.14355 1.07227 2.22391 1.07227 2.32213V3.57213C1.07227 3.67034 1.15262 3.7507 1.25084 3.7507H18.7508C18.8491 3.7507 18.9294 3.67034 18.9294 3.57213V2.32213C18.9294 2.22391 18.8491 2.14355 18.7508 2.14355ZM18.7508 16.2507H1.25084C1.15262 16.2507 1.07227 16.3311 1.07227 16.4293V17.6793C1.07227 17.7775 1.15262 17.8578 1.25084 17.8578H18.7508C18.8491 17.8578 18.9294 17.7775 18.9294 17.6793V16.4293C18.9294 16.3311 18.8491 16.2507 18.7508 16.2507ZM1.14816 10.1547L4.637 12.9025C4.76646 13.0052 4.95843 12.9136 4.95843 12.7485V7.25293C4.95843 7.08775 4.76869 6.99623 4.637 7.09891L1.14816 9.84668C1.1247 9.86492 1.10572 9.88828 1.09266 9.91497C1.0796 9.94166 1.07281 9.97098 1.07281 10.0007C1.07281 10.0304 1.0796 10.0597 1.09266 10.0864C1.10572 10.1131 1.1247 10.1365 1.14816 10.1547Z" fill="black" fill-opacity="0.85"/>
</svg>
