<svg width="34" height="34" viewBox="0 0 34 34" fill="none" xmlns="http://www.w3.org/2000/svg">
<path d="M6.5625 26.249H5.46875V12.5771H28.4375V22.4209H27.3438V13.6709H6.5625V26.249Z" fill="#076EB8"/>
<path d="M28.4375 18.0459H5.46875V12.5771H28.4375V18.0459ZM6.5625 16.9521H27.3438V13.6709H6.5625V16.9521Z" fill="#076EB8"/>
<path d="M5.46875 14.7646H28.4375V15.8584H5.46875V14.7646ZM26.25 11.4834H7.65625V7.1084H26.25V11.4834ZM8.75 10.3896H25.1562V8.20215H8.75V10.3896ZM0 32.8115H33.9062V33.9053H0V32.8115Z" fill="#076EB8"/>
<path d="M12.0312 33.9053H3.28125V25.1553H12.0312V33.9053ZM4.375 32.8115H10.9375V26.249H4.375V32.8115Z" fill="#076EB8"/>
<path d="M9.29688 31.1709H9.84375V31.7178H9.29688V31.1709ZM8.20312 31.1709H8.75V31.7178H8.20312V31.1709ZM30.0781 33.9053C29.6455 33.9053 29.2225 33.777 28.8628 33.5366C28.5031 33.2962 28.2227 32.9546 28.0571 32.5549C27.8916 32.1552 27.8483 31.7153 27.9327 31.291C28.0171 30.8667 28.2254 30.4769 28.5313 30.171C28.8373 29.8651 29.227 29.6567 29.6514 29.5723C30.0757 29.4879 30.5155 29.5312 30.9152 29.6968C31.315 29.8624 31.6566 30.1427 31.897 30.5025C32.1373 30.8622 32.2656 31.2851 32.2656 31.7178C32.2656 32.2979 32.0352 32.8543 31.6249 33.2646C31.2147 33.6748 30.6583 33.9053 30.0781 33.9053ZM30.0781 30.624C29.8618 30.624 29.6503 30.6882 29.4705 30.8084C29.2906 30.9285 29.1504 31.0994 29.0676 31.2992C28.9848 31.4991 28.9632 31.719 29.0054 31.9312C29.0476 32.1433 29.1518 32.3382 29.3047 32.4912C29.4577 32.6441 29.6526 32.7483 29.8647 32.7905C30.0769 32.8327 30.2968 32.8111 30.4967 32.7283C30.6965 32.6455 30.8674 32.5053 30.9875 32.3254C31.1077 32.1456 31.1719 31.9341 31.1719 31.7178C31.1719 31.4277 31.0566 31.1495 30.8515 30.9444C30.6464 30.7393 30.3682 30.624 30.0781 30.624ZM19.6875 33.9053C19.2549 33.9053 18.8319 33.777 18.4722 33.5366C18.1125 33.2962 17.8321 32.9546 17.6665 32.5549C17.5009 32.1552 17.4576 31.7153 17.542 31.291C17.6264 30.8667 17.8348 30.4769 18.1407 30.171C18.4466 29.8651 18.8364 29.6567 19.2607 29.5723C19.6851 29.4879 20.1249 29.5312 20.5246 29.6968C20.9243 29.8624 21.266 30.1427 21.5063 30.5025C21.7467 30.8622 21.875 31.2851 21.875 31.7178C21.875 32.2979 21.6445 32.8543 21.2343 33.2646C20.8241 33.6748 20.2677 33.9053 19.6875 33.9053ZM19.6875 30.624C19.4712 30.624 19.2597 30.6882 19.0798 30.8084C18.9 30.9285 18.7598 31.0994 18.677 31.2992C18.5942 31.4991 18.5726 31.719 18.6148 31.9312C18.657 32.1433 18.7611 32.3382 18.9141 32.4912C19.0671 32.6441 19.262 32.7483 19.4741 32.7905C19.6863 32.8327 19.9062 32.8111 20.1061 32.7283C20.3059 32.6455 20.4767 32.5053 20.5969 32.3254C20.7171 32.1456 20.7812 31.9341 20.7812 31.7178C20.7812 31.4277 20.666 31.1495 20.4609 30.9444C20.2558 30.7393 19.9776 30.624 19.6875 30.624ZM26.25 28.4365H17.5V19.6865H26.25V28.4365ZM18.5938 27.3428H25.1562V20.7803H18.5938V27.3428Z" fill="#076EB8"/>
<path d="M23.5156 25.7021H24.0625V26.249H23.5156V25.7021ZM22.4219 25.7021H22.9688V26.249H22.4219V25.7021ZM9.29688 28.9834H6.01562V25.1553H9.29688V28.9834ZM7.10938 27.8896H8.20312V26.249H7.10938V27.8896ZM23.5156 23.5146H20.2344V19.6865H23.5156V23.5146ZM21.3281 22.4209H22.4219V20.7803H21.3281V22.4209ZM32.6102 27.8896H28.9844C28.8393 27.8896 28.7002 27.832 28.5977 27.7295C28.4951 27.6269 28.4375 27.4878 28.4375 27.3428V25.1553C28.4375 25.0102 28.4951 24.8711 28.5977 24.7686C28.7002 24.666 28.8393 24.6084 28.9844 24.6084H31.7898C31.9012 24.6083 32.0099 24.6422 32.1015 24.7055C32.193 24.7688 32.2631 24.8586 32.3023 24.9628L33.1226 27.1503C33.1537 27.2331 33.1643 27.3222 33.1534 27.41C33.1426 27.4977 33.1106 27.5816 33.0602 27.6543C33.0098 27.727 32.9425 27.7864 32.8641 27.8274C32.7858 27.8684 32.6986 27.8897 32.6102 27.8896ZM29.5312 26.7959H31.821L31.4109 25.7021H29.5312V26.7959Z" fill="#076EB8"/>
<path d="M33.3594 32.2646H31.7188V31.1709H32.2656V27.9892L30.7929 24.0615H27.8906V28.4365H16.9531V31.1709H18.0469V32.2646H15.8594V27.3428H26.7969V22.9678H31.5509L33.3594 27.7901V32.2646Z" fill="#076EB8"/>
<path d="M21.3281 31.1709H28.4375V32.2646H21.3281V31.1709Z" fill="#076EB8"/>
<path d="M19.6875 32.2646C19.9895 32.2646 20.2344 32.0198 20.2344 31.7178C20.2344 31.4157 19.9895 31.1709 19.6875 31.1709C19.3855 31.1709 19.1406 31.4157 19.1406 31.7178C19.1406 32.0198 19.3855 32.2646 19.6875 32.2646Z" fill="#076EB8"/>
<path d="M30.0781 32.2646C30.3802 32.2646 30.625 32.0198 30.625 31.7178C30.625 31.4157 30.3802 31.1709 30.0781 31.1709C29.7761 31.1709 29.5312 31.4157 29.5312 31.7178C29.5312 32.0198 29.7761 32.2646 30.0781 32.2646Z" fill="#076EB8"/>
<path d="M30.625 22.4212V7.99355L16.9488 1.15543L2.73438 7.99902V33.3587C2.73438 33.5037 2.67676 33.6428 2.5742 33.7454C2.47164 33.848 2.33254 33.9056 2.1875 33.9056C2.04246 33.9056 1.90336 33.848 1.8008 33.7454C1.69824 33.6428 1.64062 33.5037 1.64062 33.3587V7.65558C1.64072 7.55274 1.66981 7.45201 1.72456 7.36495C1.77931 7.27789 1.8575 7.20803 1.95016 7.1634L16.7158 0.0540217C16.791 0.0178275 16.8736 -0.000646313 16.9571 1.72643e-05C17.0406 0.000680841 17.1229 0.0204641 17.1976 0.0578498L31.4163 7.16722C31.5071 7.21257 31.5834 7.28226 31.6368 7.3685C31.6902 7.45474 31.7186 7.55414 31.7188 7.65558V22.4212H30.625Z" fill="#076EB8"/>
</svg>
