<svg width="34" height="34" viewBox="0 0 34 34" fill="none" xmlns="http://www.w3.org/2000/svg">
<path d="M16.8164 33.6328C26.1039 33.6328 33.6328 26.1039 33.6328 16.8164C33.6328 7.52896 26.1039 0 16.8164 0C7.52896 0 0 7.52896 0 16.8164C0 26.1039 7.52896 33.6328 16.8164 33.6328Z" fill="#36A400"/>
<path fill-rule="evenodd" clip-rule="evenodd" d="M26.5407 17.5502L19.4548 21.6413L12.369 25.7322C12.0996 25.8877 11.7912 25.8877 11.5218 25.7322C11.2524 25.5767 11.0983 25.3096 11.0983 24.9985V8.63452C11.0983 8.32348 11.2525 8.0564 11.5218 7.90082C11.7912 7.7453 12.0996 7.7453 12.369 7.90082L19.4548 11.9918L26.5407 16.0828C26.8101 16.2383 26.9642 16.5054 26.9642 16.8165C26.9642 17.1276 26.8101 17.3946 26.5407 17.5502Z" fill="#E9EEF2"/>
</svg>
