<svg width="40" height="40" viewBox="0 0 40 40" fill="none" xmlns="http://www.w3.org/2000/svg">
<rect x="0.5" y="0.5" width="39" height="39" rx="7.5" stroke="#1378C0"/>
<path d="M30.3125 17.4556H28.9732C28.8259 17.4556 28.7054 17.5762 28.7054 17.7235V19.0628C28.7054 19.2101 28.8259 19.3306 28.9732 19.3306H30.3125C30.4598 19.3306 30.5804 19.2101 30.5804 19.0628V17.7235C30.5804 17.5762 30.4598 17.4556 30.3125 17.4556ZM31.3839 13.9735H27.3661V6.87528C27.3661 6.72796 27.2455 6.60742 27.0982 6.60742H12.9018C12.7545 6.60742 12.6339 6.72796 12.6339 6.87528V13.9735H8.61607C7.13616 13.9735 5.9375 15.1722 5.9375 16.6521V27.6342C5.9375 28.2268 6.41629 28.7056 7.00893 28.7056H12.6339V33.1253C12.6339 33.2726 12.7545 33.3931 12.9018 33.3931H27.0982C27.2455 33.3931 27.3661 33.2726 27.3661 33.1253V28.7056H32.9911C33.5837 28.7056 34.0625 28.2268 34.0625 27.6342V16.6521C34.0625 15.1722 32.8638 13.9735 31.3839 13.9735ZM14.9107 8.88421H25.0893V13.9735H14.9107V8.88421ZM25.0893 31.1164H14.9107V21.8753H25.0893V31.1164ZM31.7857 26.4289H27.3661V19.5985H12.6339V26.4289H8.21429V16.6521C8.21429 16.4311 8.39509 16.2503 8.61607 16.2503H31.3839C31.6049 16.2503 31.7857 16.4311 31.7857 16.6521V26.4289Z" fill="#0469B9"/>
</svg>
