<svg width="18" height="18" viewBox="0 0 18 18" fill="none" xmlns="http://www.w3.org/2000/svg">
<path d="M8.40032e-06 8.91518C0.00670483 3.98438 3.99554 0 8.92635 0C11.7835 0 14.3281 1.34375 15.9621 3.43304L17.0335 2.59598C17.1518 2.50446 17.3237 2.58929 17.3214 2.73661L17.3036 6.46429C17.3036 6.58036 17.1942 6.66518 17.0826 6.63616L13.4598 5.75446C13.4272 5.7465 13.3974 5.72948 13.374 5.70537C13.3506 5.68125 13.3345 5.65102 13.3275 5.61814C13.3205 5.58526 13.3229 5.55107 13.3345 5.51951C13.346 5.48795 13.3663 5.4603 13.3929 5.43973L14.5558 4.53125C14.3772 4.30357 14.183 4.08482 13.9755 3.87723C13.3251 3.2246 12.5541 2.70455 11.7054 2.34598C10.8259 1.97321 9.89063 1.78571 8.92635 1.78571C7.96206 1.78571 7.02679 1.97321 6.14733 2.34598C5.29688 2.70536 4.53349 3.22098 3.87724 3.87723C3.22099 4.53348 2.70537 5.29688 2.34599 6.14732C1.97322 7.02902 1.78572 7.96429 1.78572 8.92857C1.78572 9.89286 1.97322 10.8281 2.34599 11.7076C2.70537 12.558 3.22099 13.3214 3.87724 13.9777C4.53349 14.6339 5.29688 15.1496 6.14733 15.5089C7.02679 15.8817 7.96206 16.0692 8.92635 16.0692C9.89063 16.0692 10.8259 15.8817 11.7054 15.5089C12.5541 15.1504 13.3251 14.6303 13.9755 13.9777C14.1429 13.8103 14.2991 13.6362 14.4487 13.4554C14.4781 13.4191 14.5206 13.396 14.567 13.391C14.6134 13.386 14.6599 13.3995 14.6964 13.4286L15.8237 14.308C15.9018 14.3705 15.9152 14.4844 15.8527 14.5625C14.2143 16.5737 11.721 17.8571 8.92635 17.8571C3.99108 17.8571 -0.00668803 13.8527 8.40032e-06 8.91518Z" fill="#0469B9"/>
</svg>
