<svg width="18" height="18" viewBox="0 0 18 18" fill="none" xmlns="http://www.w3.org/2000/svg">
<path d="M5.17857 1.60714H5C5.09822 1.60714 5.17857 1.52679 5.17857 1.42857V1.60714H11.9643V1.42857C11.9643 1.52679 12.0446 1.60714 12.1429 1.60714H11.9643V3.21429H13.5714V1.42857C13.5714 0.640625 12.9308 0 12.1429 0H5C4.21205 0 3.57143 0.640625 3.57143 1.42857V3.21429H5.17857V1.60714ZM16.4286 3.21429H0.714286C0.319196 3.21429 0 3.53348 0 3.92857V4.64286C0 4.74107 0.0803572 4.82143 0.178571 4.82143H1.52679L2.07813 16.4955C2.11384 17.2567 2.7433 17.8571 3.50446 17.8571H13.6384C14.4018 17.8571 15.029 17.2589 15.0647 16.4955L15.6161 4.82143H16.9643C17.0625 4.82143 17.1429 4.74107 17.1429 4.64286V3.92857C17.1429 3.53348 16.8237 3.21429 16.4286 3.21429ZM13.4665 16.25H3.67634L3.13616 4.82143H14.0067L13.4665 16.25Z" fill="#0469B9"/>
</svg>
