<svg width="19" height="20" viewBox="0 0 19 20" fill="none" xmlns="http://www.w3.org/2000/svg">
<path d="M18.683 12.5413L17.221 11.2913C17.2902 10.8672 17.3259 10.4342 17.3259 10.0011C17.3259 9.56808 17.2902 9.13504 17.221 8.71094L18.683 7.46094C18.7933 7.36653 18.8722 7.24079 18.9093 7.10044C18.9464 6.96009 18.9399 6.81178 18.8906 6.67522L18.8705 6.61719C18.468 5.49225 17.8653 4.44941 17.0915 3.53906L17.0513 3.49219C16.9575 3.38181 16.8324 3.30247 16.6925 3.26462C16.5526 3.22676 16.4046 3.23217 16.2679 3.28013L14.4531 3.92522C13.7835 3.37612 13.0357 2.94308 12.2277 2.63951L11.8772 0.742187C11.8508 0.599425 11.7815 0.468086 11.6787 0.36562C11.5758 0.263154 11.4442 0.194412 11.3013 0.168527L11.2411 0.157366C10.0781 -0.0524554 8.85492 -0.0524554 7.69197 0.157366L7.6317 0.168527C7.48884 0.194412 7.35723 0.263154 7.25437 0.36562C7.1515 0.468086 7.08225 0.599425 7.05581 0.742187L6.70313 2.64844C5.90154 2.95207 5.15506 3.38488 4.49331 3.92969L2.66518 3.28013C2.5285 3.23179 2.38034 3.22618 2.2404 3.26406C2.10045 3.30194 1.97534 3.38151 1.8817 3.49219L1.84152 3.53906C1.06863 4.45005 0.466022 5.49272 0.0625045 6.61719L0.0424152 6.67522C-0.0580312 6.95424 0.0245581 7.26674 0.250005 7.46094L1.72992 8.72433C1.66072 9.14397 1.62724 9.57254 1.62724 9.99888C1.62724 10.4275 1.66072 10.856 1.72992 11.2734L0.250005 12.5368C0.139727 12.6312 0.0608002 12.757 0.0237188 12.8973C-0.0133626 13.0377 -0.00684152 13.186 0.0424152 13.3225L0.0625045 13.3806C0.466522 14.5056 1.06474 15.5435 1.84152 16.4587L1.8817 16.5056C1.97557 16.616 2.10068 16.6953 2.24055 16.7332C2.38041 16.771 2.52846 16.7656 2.66518 16.7176L4.49331 16.0681C5.15849 16.615 5.90179 17.048 6.70313 17.3493L7.05581 19.2556C7.08225 19.3983 7.1515 19.5297 7.25437 19.6321C7.35723 19.7346 7.48884 19.8034 7.6317 19.8292L7.69197 19.8404C8.8656 20.0513 10.0674 20.0513 11.2411 19.8404L11.3013 19.8292C11.4442 19.8034 11.5758 19.7346 11.6787 19.6321C11.7815 19.5297 11.8508 19.3983 11.8772 19.2556L12.2277 17.3583C13.0354 17.0555 13.7874 16.621 14.4531 16.0725L16.2679 16.7176C16.4045 16.766 16.5527 16.7716 16.6926 16.7337C16.8326 16.6958 16.9577 16.6163 17.0513 16.5056L17.0915 16.4587C17.8683 15.5413 18.4665 14.5056 18.8705 13.3806L18.8906 13.3225C18.9911 13.048 18.9085 12.7355 18.683 12.5413V12.5413ZM15.6362 8.97433C15.692 9.31138 15.721 9.65737 15.721 10.0033C15.721 10.3493 15.692 10.6953 15.6362 11.0324L15.4888 11.9275L17.1563 13.3538C16.9035 13.9361 16.5844 14.4874 16.2054 14.9967L14.1339 14.2623L13.433 14.8382C12.8996 15.2757 12.3058 15.6194 11.663 15.8605L10.8125 16.1797L10.413 18.3449C9.78253 18.4163 9.14605 18.4163 8.51563 18.3449L8.11608 16.1752L7.27233 15.8516C6.63617 15.6105 6.04465 15.2667 5.51563 14.8315L4.81474 14.2533L2.72992 14.9944C2.35045 14.4833 2.03349 13.9319 1.77902 13.3516L3.46429 11.9118L3.3192 11.019C3.26563 10.6864 3.23661 10.3426 3.23661 10.0033C3.23661 9.66183 3.2634 9.32031 3.3192 8.98772L3.46429 8.09487L1.77902 6.65513C2.03125 6.07254 2.35045 5.52344 2.72992 5.01228L4.81474 5.75335L5.51563 5.17522C6.04465 4.73996 6.63617 4.39621 7.27233 4.15513L8.11831 3.83594L8.51786 1.66629C9.14509 1.59487 9.78572 1.59487 10.4152 1.66629L10.8147 3.83147L11.6652 4.15067C12.3058 4.39174 12.9018 4.73549 13.4353 5.17299L14.1362 5.74888L16.2076 5.01451C16.5871 5.52567 16.904 6.07701 17.1585 6.65737L15.4911 8.08371L15.6362 8.97433ZM9.46875 5.85156C7.29911 5.85156 5.54018 7.61049 5.54018 9.78013C5.54018 11.9498 7.29911 13.7087 9.46875 13.7087C11.6384 13.7087 13.3973 11.9498 13.3973 9.78013C13.3973 7.61049 11.6384 5.85156 9.46875 5.85156ZM11.2366 11.548C11.0047 11.7805 10.7292 11.9649 10.4258 12.0906C10.1224 12.2162 9.79714 12.2806 9.46875 12.2801C8.80134 12.2801 8.17411 12.019 7.7009 11.548C7.46836 11.3161 7.28396 11.0406 7.15831 10.7372C7.03267 10.4338 6.96824 10.1085 6.96875 9.78013C6.96875 9.11272 7.22991 8.48549 7.7009 8.01228C8.17411 7.53906 8.80134 7.28013 9.46875 7.28013C10.1362 7.28013 10.7634 7.53906 11.2366 8.01228C11.4691 8.24415 11.6535 8.51971 11.7792 8.8231C11.9048 9.1265 11.9693 9.45175 11.9688 9.78013C11.9688 10.4475 11.7076 11.0748 11.2366 11.548Z" fill="#076EB8"/>
</svg>
